<svg xmlns="http://www.w3.org/2000/svg" viewBox="0 0 300 200" width="100%" height="100%">
  <g transform="translate(50, 30)">
    <polygon points="30,0 60,15 60,50 30,65 0,50 0,15" fill="#e6522c"/>
    <path d="M 30,12 C 30,12 45,25 40,40 C 35,55 20,55 15,45 C 10,35 20,25 30,12 Z" fill="#ffffff" />
    <path d="M 30,25 C 30,25 38,32 35,42 C 32,50 25,50 22,45 C 19,40 25,32 30,25 Z" fill="#e6522c" />
    <text x="80" y="42" font-family="Segoe UI, Roboto, sans-serif" font-weight="bold" font-size="22" fill="#334155">Prometheus</text>
  </g>
  
  <text x="150" y="115" font-family="Segoe UI, Roboto, sans-serif" font-weight="bold" font-size="24" fill="#94a3b8" text-anchor="middle">+</text>

  <g transform="translate(80, 130)">
    <path d="M 20,0 A 20,20 0 1,0 40,20 L 30,20 A 10,10 0 1,1 20,10 Z" fill="#F47A20"/>
    <circle cx="35" cy="5" r="5" fill="#F47A20"/>
    <text x="60" y="27" font-family="Segoe UI, Roboto, sans-serif" font-weight="bold" font-size="22" fill="#334155">Grafana</text>
  </g>
</svg>
